<svg viewBox="0 0 129 29" fill="none" xmlns="http://www.w3.org/2000/svg">
<path d="M53.5199 11.6308C52.9744 11.1461 52.3742 10.7154 51.665 10.4461C50.9558 10.1769 50.1374 10.0154 49.3191 10.0154C48.4462 10.0154 47.6824 10.1769 46.9732 10.4461C46.2639 10.7154 45.6093 11.1461 45.1182 11.6308C44.5727 12.1154 44.1908 12.7077 43.8635 13.4077C43.5907 14.1077 43.427 14.8615 43.427 15.6692C43.427 16.4769 43.5907 17.2308 43.8635 17.9308C44.1362 18.6308 44.5727 19.2231 45.1182 19.7077C45.6638 20.1923 46.2639 20.6231 46.9732 20.8923C47.6824 21.1615 48.5007 21.3231 49.3191 21.3231C50.192 21.3231 50.9558 21.1615 51.665 20.8923C52.3742 20.6231 53.0289 20.1923 53.5199 19.7077C54.0655 19.2231 54.4474 18.6308 54.7747 17.9308C55.0475 17.2308 55.2112 16.4769 55.2112 15.6692C55.2112 14.8615 55.0475 14.1077 54.7747 13.4077C54.5019 12.7077 54.0655 12.1154 53.5199 11.6308ZM52.5925 17.1231C52.4288 17.5538 52.156 17.9308 51.8832 18.2538C51.5559 18.5769 51.174 18.8461 50.7921 19.0077C50.3557 19.1692 49.8646 19.2769 49.3736 19.2769C48.8826 19.2769 48.3916 19.1692 47.9552 19.0077C47.5187 18.8461 47.1368 18.5769 46.8641 18.2538C46.5367 17.9308 46.3185 17.5538 46.1548 17.1231C45.9911 16.6923 45.882 16.2077 45.882 15.6692C45.882 15.1308 45.9911 14.6461 46.1548 14.2154C46.3185 13.7846 46.5913 13.4077 46.8641 13.0846C47.1914 12.7615 47.5733 12.4923 47.9552 12.3308C48.3916 12.1692 48.8281 12.0615 49.3736 12.0615C49.9192 12.0615 50.3557 12.1692 50.7921 12.3308C51.2286 12.4923 51.6105 12.7615 51.8832 13.0846C52.2106 13.4077 52.4288 13.7846 52.5925 14.2154C52.7561 14.6461 52.8652 15.1308 52.8652 15.6692C52.8652 16.1538 52.7561 16.6385 52.5925 17.1231Z" fill="white"/>
<path d="M40.4263 14.1077C39.9353 13.7846 39.3352 13.5154 38.7351 13.3C38.135 13.0846 37.4803 12.8692 36.8802 12.6538C36.5528 12.5461 36.2255 12.4385 35.8982 12.2769C35.5708 12.1692 35.3526 12.0077 35.0798 11.8461C34.8616 11.6846 34.6979 11.5231 34.5343 11.3077C34.3706 11.0923 34.316 10.8231 34.316 10.5538C34.316 10.0154 34.5343 9.58461 35.0253 9.26153C35.5163 8.93845 36.1164 8.77691 36.8256 8.77691C37.5894 8.77691 38.2987 8.93845 38.8442 9.26153C39.1716 9.47692 39.4443 9.63845 39.6626 9.85384C40.099 10.1769 40.7537 10.1769 41.1356 9.74615C41.572 9.31538 41.5175 8.56153 41.0265 8.18461C40.6446 7.91538 40.2627 7.64615 39.7171 7.37691C38.8442 6.94615 37.8622 6.78461 36.7711 6.78461C36.0073 6.78461 35.3526 6.8923 34.7525 7.05384C34.1524 7.26922 33.6068 7.53845 33.1704 7.86153C32.7339 8.18461 32.4066 8.61538 32.1338 9.09999C31.9156 9.58461 31.7519 10.1231 31.7519 10.6615C31.7519 11.2538 31.861 11.7923 32.1338 12.2231C32.352 12.6538 32.6794 13.0308 33.0612 13.3538C33.4431 13.6769 33.8796 13.8923 34.316 14.1077C34.7525 14.3231 35.1889 14.4846 35.6254 14.6461C36.171 14.8077 36.662 15.0231 37.0984 15.1308C37.5894 15.2923 37.9713 15.4538 38.3532 15.6154C38.7351 15.7769 39.0079 15.9923 39.2261 16.2615C39.4443 16.5308 39.5534 16.8538 39.5534 17.2846C39.5534 17.8231 39.2807 18.3077 38.7897 18.6846C38.2987 19.0615 37.5894 19.2231 36.662 19.2231C35.9527 19.2231 35.1889 19.0077 34.4252 18.6308C33.9887 18.4154 33.4977 18.0923 33.1158 17.7154C32.6794 17.3385 32.0247 17.3385 31.5882 17.7692C31.1518 18.2 31.2063 18.8461 31.5882 19.2769C32.0247 19.7077 32.6794 20.1923 33.4431 20.5692C34.4797 21.0538 35.5708 21.2692 36.7165 21.2692C37.4803 21.2692 38.135 21.1615 38.7897 21C39.4443 20.8385 39.9899 20.5692 40.4263 20.1923C40.9174 19.8692 41.2447 19.4385 41.5175 18.9C41.7903 18.4154 41.8994 17.8231 41.8994 17.1769C41.8994 16.4231 41.7357 15.7769 41.4084 15.2385C41.3538 14.8615 40.9174 14.4308 40.4263 14.1077Z" fill="white"/>
<path d="M65.3041 12.1154V17.6077C65.3041 18.2 65.4132 18.7923 65.5768 19.2231C65.7405 19.7077 66.0133 20.0846 66.3406 20.3538C66.668 20.6769 67.0499 20.8923 67.4863 21.0538C67.9228 21.2154 68.4138 21.2692 68.9048 21.2692C69.3958 21.2692 69.8322 21.2154 70.2141 21.0538C71.1961 20.6769 71.4144 20.4077 71.2507 19.9769C70.9234 19.3308 70.3778 18.9538 69.6686 19.1154C69.5595 19.1154 69.2867 19.2231 69.2321 19.2231C68.7411 19.2231 68.4138 19.0615 68.0864 18.7923C67.8137 18.5231 67.65 18.0385 67.65 17.3923V12.0077V10.1769V7.96922C67.65 7.32307 67.1044 6.78461 66.4498 6.78461C65.7951 6.78461 65.2495 7.32307 65.2495 7.96922V10.1769V12.1154H65.3041Z" fill="white"/>
<path d="M59.9031 10.2846V9.96153C59.9031 9.20768 60.1213 8.72306 60.5032 8.34614C60.8851 8.02306 61.3215 7.86153 61.8671 7.86153C62.0307 7.86153 62.249 7.86153 62.4672 7.91537C62.7945 7.96922 63.1219 7.91537 63.3401 7.69999C64.0493 7.10768 63.7765 6.29999 62.8491 6.0846C62.3035 5.97691 61.5943 5.92307 61.5943 5.92307C61.1033 5.92307 60.5577 5.97691 60.1213 6.13845C59.6303 6.29999 59.1938 6.51537 58.8119 6.83845C58.43 7.16153 58.1027 7.5923 57.8845 8.07691C57.6662 8.56153 57.5571 9.15383 57.5571 9.85383V10.1769V12.0077V19.6538C57.5571 20.2461 57.939 20.7846 58.5391 20.8923C59.3029 21.0538 59.9031 20.4615 59.9031 19.7615V12.1154V10.2846Z" fill="white"/>
<path d="M56.6296 10.2846C56.1386 10.2846 55.7021 10.7154 55.7021 11.2C55.7021 11.6846 56.1386 12.1154 56.6296 12.1154H70.0505C70.5415 12.1154 70.9779 11.6846 70.9779 11.2C70.9779 10.7154 70.5415 10.2846 70.0505 10.2846H56.6296Z" fill="white"/>
<path d="M86.6902 10.2846C86.0356 10.2846 85.49 10.8231 85.49 11.4692V19.9231C85.49 20.5692 86.0356 21.1077 86.6902 21.1077C87.3449 21.1077 87.8905 20.5692 87.8905 19.9231V11.4692C87.8905 10.7692 87.3449 10.2846 86.6902 10.2846Z" fill="white"/>
<path d="M80.7981 15.3462C80.7436 15.2385 80.7981 15.1308 80.9072 15.0769C81.7801 14.8077 82.4348 14.3231 82.9258 13.7308C83.4714 13.0846 83.6896 12.2769 83.6896 11.2538C83.6896 9.90769 83.2531 8.88462 82.3802 8.13077C81.5073 7.37692 80.198 7 78.5067 7H73.7058C73.2148 7 72.7783 7.37692 72.7783 7.91538V19.8154C72.7783 20.4615 73.3239 21 73.9786 21C74.6332 21 75.1788 20.4615 75.1788 19.8154V15.6692C75.1788 15.5077 75.2879 15.4 75.4516 15.4H78.0157C78.1248 15.4 78.234 15.4538 78.2885 15.5615L80.8527 20.3C81.0709 20.6769 81.3982 20.9462 81.8347 21.0538C82.7076 21.2692 83.4168 20.2462 82.9804 19.4385L80.7981 15.3462ZM80.5799 13.0308C80.1434 13.4615 79.4888 13.6769 78.725 13.6769H75.5061C75.3425 13.6769 75.2334 13.5692 75.2334 13.4077V9.36923C75.2334 9.20769 75.3425 9.1 75.5061 9.1H78.725C79.4888 9.1 80.1434 9.31538 80.5799 9.74615C81.0163 10.1769 81.2346 10.7154 81.2346 11.4154C81.2346 12.1154 81.0163 12.6 80.5799 13.0308Z" fill="white"/>
<path d="M86.6902 5.97693C85.9264 5.97693 85.2717 6.62308 85.2717 7.37693C85.2717 8.13077 85.9264 8.77693 86.6902 8.77693C87.454 8.77693 88.1087 8.13077 88.1087 7.37693C88.1087 6.62308 87.454 5.97693 86.6902 5.97693Z" fill="white"/>
<path d="M100.711 19.3846V12.1692V11.3615V11.2538C100.711 10.7154 100.275 10.2307 99.6745 10.2307C99.1289 10.2307 98.6379 10.6615 98.6379 11.2538V11.4154C98.2015 10.9846 97.6559 10.6077 97.0558 10.3384C96.4557 10.0692 95.7464 9.96152 94.9826 9.96152C94.2189 9.96152 93.5096 10.0692 92.8549 10.3384C92.2003 10.6077 91.6547 10.9307 91.1637 11.4154C90.6727 11.8461 90.3454 12.3846 90.0726 13.0307C89.7998 13.6769 89.6907 14.3231 89.6907 15.0231C89.6907 15.7231 89.7998 16.4231 90.0726 17.0154C90.3454 17.6615 90.7272 18.2 91.1637 18.6307C91.6547 19.0615 92.2003 19.4384 92.8549 19.7077C93.5096 19.9769 94.2189 20.0846 94.9826 20.0846C95.6919 20.0846 96.3465 19.9769 96.9467 19.7615C97.5468 19.5461 98.0378 19.2231 98.5288 18.7923V19.6C98.5288 20.1384 98.4197 20.5692 98.256 20.9461C98.0923 21.3231 97.8196 21.6461 97.5468 21.8615C97.2194 22.1307 96.8921 22.2923 96.4557 22.4C96.0192 22.5077 95.5828 22.5615 95.1463 22.5615C94.328 22.5615 93.5642 22.4 92.9641 22.0769C92.5822 21.9154 92.2548 21.6461 91.982 21.4307C91.6002 21.1077 90.9455 21.0538 90.6181 21.4307C90.2362 21.8077 90.2362 22.4538 90.6727 22.8307C91.0546 23.1538 91.5456 23.5307 92.2003 23.8C93.0732 24.2307 94.0552 24.3923 95.2009 24.3923C95.9647 24.3923 96.6739 24.2846 97.3831 24.0692C98.0923 23.8538 98.6379 23.5307 99.1835 23.1538C99.6745 22.7231 100.111 22.1846 100.384 21.5384C100.602 21.0538 100.711 20.3 100.711 19.3846ZM98.6379 15.0769C98.6379 15.5615 98.5833 15.9384 98.4197 16.3692C98.256 16.7461 98.0378 17.1231 97.765 17.3923C97.4922 17.6615 97.1103 17.8769 96.7284 18.0384C96.3465 18.2 95.8555 18.2538 95.4191 18.2538C94.4371 18.2538 93.6187 17.9307 93.0186 17.3384C92.4185 16.7461 92.1457 15.9923 92.1457 15.0231C92.1457 14.5384 92.2003 14.1615 92.3639 13.7307C92.5276 13.3538 92.7458 12.9769 93.0186 12.7077C93.2914 12.4384 93.6187 12.2231 94.0552 12.0615C94.4371 11.9 94.8735 11.8461 95.3645 11.8461C95.8555 11.8461 96.292 11.9 96.6739 12.0615C97.0558 12.2231 97.4377 12.4384 97.7105 12.7077C97.9832 12.9769 98.2015 13.3538 98.3651 13.7307C98.5288 14.2154 98.6379 14.6461 98.6379 15.0769Z" fill="white"/>
<path d="M8.62002 10.3385C8.72914 10.7692 9.16559 11.0385 9.60204 11.0385H18.1128C19.8041 11.0385 21.2225 12.4385 21.168 14.1077C21.1134 15.7769 19.6404 17.0154 18.0037 17.0154H7.74712C7.20156 17.0154 6.71055 16.5846 6.71055 15.9923C6.71055 15.4538 7.147 14.9692 7.74712 14.9692H18.1128C18.7675 14.9692 19.3131 14.3231 19.0948 13.6231C18.9857 13.1923 18.5493 12.9231 18.1128 12.9231H9.60204C7.91079 12.9231 6.49233 11.5231 6.54688 9.85384C6.60144 8.18461 8.07446 6.94615 9.71115 6.94615H19.9677C20.5133 6.94615 21.0043 7.37692 21.0043 7.96922C21.0043 8.50769 20.5679 8.93846 20.0223 8.93846H9.60204C8.89281 9.04615 8.4018 9.6923 8.62002 10.3385ZM6.71055 20.0308C6.71055 19.4923 7.147 19.0077 7.74712 19.0077H19.9677C20.5133 19.0077 21.0043 19.4385 21.0043 20.0308C21.0043 20.5692 20.5679 21.0538 19.9677 21.0538H7.74712C7.20156 21.0538 6.71055 20.6231 6.71055 20.0308ZM26.2417 23.5846V4.46922C26.2417 2.96153 25.0415 1.77692 23.5139 1.77692H4.20096C2.67338 1.77692 1.47314 2.96153 1.47314 4.46922V23.5846C1.47314 25.0923 2.67338 26.2769 4.20096 26.2769H23.5685C25.0415 26.2769 26.2417 25.0923 26.2417 23.5846Z" fill="white"/>
</svg>